<?xml version="1.0" standalone="no"?><!DOCTYPE svg PUBLIC "-//W3C//DTD SVG 1.1//EN"
        "http://www.w3.org/Graphics/SVG/1.1/DTD/svg11.dtd">
<svg t="1765520914308" class="icon" viewBox="0 0 1024 1024" version="1.1" xmlns="http://www.w3.org/2000/svg" p-id="7797"
     xmlns:xlink="http://www.w3.org/1999/xlink" width="128" height="128">
    <path d="M983.493517 312.849609a511.764319 511.764319 0 1 0-109.625304 561.055303 511.764319 511.764319 0 0 0 109.625304-561.055303z m-239.653843 186.187939a41.07582 41.07582 0 0 1-56.361413 0L551.860717 363.352667v356.48425a39.931084 39.931084 0 0 1-79.794832 0v-356.888275L336.448341 498.700861a39.931084 39.931084 0 0 1-56.496087-56.361412l137.974353-137.907017-8.8212-3.434207 10.571973 1.683435 0.942724-0.942724a129.624515 129.624515 0 0 1 182.753732 0l1.010061 1.077399 13.467482-2.222135-11.380022 4.444269 137.233642 137.233643a39.661735 39.661735 0 0 1 0 56.496087z"
          fill="#165dff" p-id="7798"></path>
</svg>