<svg width="1024" height="1024" xmlns="http://www.w3.org/2000/svg" p-id="20940" version="1.1" class="icon" t="1758681637288">

 <g>
  <title>background</title>
  <rect fill="none" id="canvas_background" height="1166" width="2294" y="-1" x="-1"/>
 </g>
 <g>
  <title>Layer 1</title>
  <path id="svg_1" p-id="20941" fill="#333333" d="m0,170.66667a170.66667,170.66667 0 0 1 170.66667,-170.66667l682.66666,0a170.66667,170.66667 0 0 1 170.66667,170.66667l0,682.66666a170.66667,170.66667 0 0 1 -170.66667,170.66667l-682.66666,0a170.66667,170.66667 0 0 1 -170.66667,-170.66667l0,-682.66666z"/>
  <path stroke="null" id="svg_2" p-id="20942" fill="#ffffff" d="m213.333284,322.667032l298.66667,-129.62171l298.66667,129.62171l-287.31734,121.435068a21.33333,17.055485 0 0 0 -11.34933,15.008826l0,208.111064a12.8,10.233292 0 0 0 18.77333,9.039403l177.408,-74.941807l0,-56.93122l-110.93333,44.34427l0,-102.332925l213.33333,-88.68854l0,160.355693l0.08534,0l0,146.677195l-298.66667,126.21061l-298.66667,-126.21061l0,-382.077028z"/>
 </g>
</svg>